<?xml version="1.0" encoding="UTF-8" standalone="no"?>
<!DOCTYPE svg PUBLIC "-//W3C//DTD SVG 1.1//EN" "http://www.w3.org/Graphics/SVG/1.1/DTD/svg11.dtd">
<svg width="100%" height="100%" viewBox="0 0 210 64" version="1.1" xmlns="http://www.w3.org/2000/svg" xmlns:xlink="http://www.w3.org/1999/xlink" xml:space="preserve" xmlns:serif="http://www.serif.com/" style="fill-rule:evenodd;clip-rule:evenodd;stroke-linejoin:round;stroke-miterlimit:2;">
    <g transform="matrix(1.48272e-15,23.229,-14.0848,9.32479e-16,421.017,-2595.37)">
        <rect x="111.73" y="14.994" width="2.734" height="14.898" style="fill:rgb(14,17,22);fill-rule:nonzero;"/>
    </g>
    <g>
        <g transform="matrix(2.57287,0,0,2.57287,-7.41105,-25.992)">
            <g transform="matrix(1,0,-2.77556e-17,0.5572,-38.9939,13.236)">
                <rect x="111.73" y="14.994" width="2.734" height="14.898" style="fill:white;fill-rule:nonzero;"/>
            </g>
            <g transform="matrix(-0.866025,0.5,0.320175,0.554559,162.638,-49.5402)">
                <path d="M114.463,28.816L111.73,29.96C111.73,29.96 111.728,28.247 111.73,18.606C111.73,16.344 112.102,15.431 112.932,14.549C112.933,14.547 114.463,13.168 114.463,13.168L114.463,28.816Z" style="fill:white;fill-rule:nonzero;"/>
            </g>
            <g transform="matrix(0.866025,0.5,-0.320175,0.554559,-14.4324,-49.5402)">
                <path d="M114.463,28.816L111.73,29.96C111.73,29.96 111.728,28.247 111.73,18.606C111.73,16.344 112.102,15.431 112.932,14.549C112.933,14.547 114.463,13.168 114.463,13.168L114.463,28.816Z" style="fill:white;fill-rule:nonzero;"/>
            </g>
            <g transform="matrix(0.707107,0.707107,-0.557094,0.557094,-11.92,-72.3922)">
                <path d="M114.463,29.892L111.73,29.892L111.73,16.733C111.73,15.101 112.337,14.273 112.337,14.273L114.433,11.625L114.463,29.892Z" style="fill:white;fill-rule:nonzero;"/>
            </g>
            <g transform="matrix(-0.733164,0.680052,-0.40764,-0.439477,149.111,-41.36)">
                <path d="M114.463,29.892L111.73,29.892L111.94,11.089L114.463,14.994L114.463,29.892Z" style="fill:white;fill-rule:nonzero;"/>
            </g>
            <g transform="matrix(1,0,0,1,-49.2297,-7.10543e-15)">
                <rect x="111.73" y="14.994" width="2.734" height="14.898" style="fill:white;fill-rule:nonzero;"/>
            </g>
            <g transform="matrix(6.12323e-17,1,-0.523418,3.20501e-17,78.1458,-84.5718)">
                <path d="M114.463,29.892L111.73,29.892L111.73,21.47C111.73,15.239 114.463,14.994 114.463,14.994L114.463,29.892Z" style="fill:white;fill-rule:nonzero;"/>
            </g>
            <g transform="matrix(1,0,0,1,-95.469,-1.06581e-14)">
                <rect x="111.73" y="14.994" width="2.734" height="14.898" style="fill:white;fill-rule:nonzero;"/>
            </g>
            <g transform="matrix(6.12323e-17,1,-0.523418,3.20501e-17,31.9065,-84.5718)">
                <path d="M114.463,29.892L111.73,29.892L111.73,21.47C111.73,15.239 114.463,14.994 114.463,14.994L114.463,29.892Z" style="fill:white;fill-rule:nonzero;"/>
            </g>
            <g transform="matrix(1,0,0,1,-117.179,-7.10543e-15)">
                <path d="M159.441,18.746L159.441,29.892L156.717,29.892L156.717,14.994L159.118,14.994C159.451,14.994 159.744,15.042 159.997,15.139C160.25,15.236 160.449,15.385 160.595,15.586C161.635,17.063 167.217,24.955 167.217,24.955L167.217,14.994L169.941,15L169.928,29.892L167.415,29.892L159.441,18.746Z" style="fill:white;fill-rule:nonzero;"/>
            </g>
            <g transform="matrix(1,0,0,1,-155.403,0)">
                <path d="M188.434,14.994L185.97,14.994L179.462,29.892L181.156,29.892C181.344,29.892 181.529,29.864 181.712,29.808C181.896,29.753 182.068,29.675 182.228,29.575C182.387,29.474 182.529,29.354 182.654,29.216C182.779,29.077 182.875,28.925 182.945,28.758L183.818,26.742L183.82,26.742L185.395,23.115L185.409,23.115L187.202,18.953L189.38,24.007L188.143,24.007C187.217,24.007 186.379,24.557 186.011,25.406L185.431,26.742L190.586,26.742L191.47,28.758C191.629,29.112 191.868,29.389 192.187,29.59C192.506,29.791 192.859,29.892 193.247,29.892L194.942,29.892L188.434,14.994Z" style="fill:white;fill-rule:nonzero;"/>
            </g>
            <g transform="matrix(1,0,0,0.91212,-114.74,1.31761)">
                <path d="M123.724,24.527L118.963,24.527L118.963,14.994L124.556,14.994C125.276,14.994 125.929,15.129 126.515,15.399C127.101,15.669 127.602,16.028 128.018,16.475C128.434,16.922 128.755,17.43 128.984,17.998C129.213,18.567 129.327,19.152 129.327,19.755C129.327,20.192 129.268,20.618 129.151,21.034C129.032,21.45 128.86,21.841 128.631,22.209C128.402,22.576 128.121,22.914 127.789,23.222C127.456,23.531 123.724,24.527 123.724,24.527ZM124.639,21.793C124.902,21.793 125.153,21.737 125.392,21.626C125.632,21.516 125.839,21.366 126.017,21.179C126.193,20.992 126.333,20.776 126.437,20.529C126.541,20.284 126.593,20.029 126.593,19.765C126.593,19.495 126.541,19.237 126.437,18.991C126.333,18.745 126.193,18.528 126.017,18.341C125.839,18.154 125.632,18.005 125.392,17.894C125.153,17.783 124.902,17.728 124.639,17.728L121.687,17.728L121.687,21.793L124.639,21.793Z" style="fill:white;fill-rule:nonzero;"/>
            </g>
            <g transform="matrix(1,0,0,-0.91212,-114.74,43.5671)">
                <path d="M123.724,24.527L118.963,24.527L118.963,14.994L124.556,14.994C125.276,14.994 125.929,15.129 126.515,15.399C127.101,15.669 127.602,16.028 128.018,16.475C128.434,16.922 128.755,17.43 128.984,17.998C129.213,18.567 129.327,19.152 129.327,19.755C129.327,20.192 129.268,20.618 129.151,21.034C129.032,21.45 128.86,21.841 128.631,22.209C128.402,22.576 128.121,22.914 127.789,23.222C127.456,23.531 123.724,24.527 123.724,24.527ZM124.639,21.793C124.902,21.793 125.153,21.737 125.392,21.626C125.632,21.516 125.839,21.366 126.017,21.179C126.193,20.992 126.333,20.776 126.437,20.529C126.541,20.284 126.593,20.029 126.593,19.765C126.593,19.495 126.541,19.237 126.437,18.991C126.333,18.745 126.193,18.528 126.017,18.341C125.839,18.154 125.632,18.005 125.392,17.894C125.153,17.783 124.902,17.728 124.639,17.728L121.687,17.728L121.687,21.793L124.639,21.793Z" style="fill:white;fill-rule:nonzero;"/>
            </g>
        </g>
        <g transform="matrix(2.57287,0,0,2.57287,4.91172,-25.8243)">
            <g transform="matrix(1,0,0,1,-78.9396,-18.6903)">
                <path d="M157.244,48.517L156.871,48.517L156.871,46.434L156.859,46.434L156.019,48.517L155.791,48.517L154.975,46.434L154.963,46.434L154.963,48.517L154.59,48.517L154.59,46.061L155.202,46.061L155.908,47.794L156.637,46.061L157.244,46.061L157.244,48.517Z" style="fill:white;fill-rule:nonzero;"/>
            </g>
            <g transform="matrix(1,0,0,1,-78.9396,-18.6903)">
                <path d="M154.14,46.434L153.336,46.434L153.336,48.517L152.962,48.517L152.962,46.434L152.157,46.434L152.157,46.061L154.14,46.061L154.14,46.434Z" style="fill:white;fill-rule:nonzero;"/>
            </g>
        </g>
    </g>
</svg>
